name D:\school\WTK\thesis\model\3dpredictsim\Results\MidTarsalJoint\Fal_s1_bCst_PF_Gefen2002_ls150_MT_nl_signed_lin_MTP_T5_ig24_300_10.mot
datacolumns 128
datarows 4
range 1.17917511 1.21455036
endheader
time	pelvis_tilt	pelvis_list	pelvis_rotation	pelvis_tx	pelvis_ty	pelvis_tz	hip_flexion_l	hip_adduction_l	hip_rotation_l	hip_flexion_r	hip_adduction_r	hip_rotation_r	knee_angle_l	knee_angle_r	ankle_angle_l	ankle_angle_r	subtalar_angle_l	subtalar_angle_r	mtj_angle_l	mtj_angle_r	mtp_angle_l	mtp_angle_r	lumbar_extension	lumbar_bending	lumbar_rotation	arm_flex_l	arm_add_l	arm_rot_l	arm_flex_r	arm_add_r	arm_rot_r	elbow_flex_l	elbow_flex_r	pro_sup_l	pro_sup_r	glut_med1_l/activation	glut_med2_l/activation	glut_med3_l/activation	glut_min1_l/activation	glut_min2_l/activation	glut_min3_l/activation	semimem_l/activation	semiten_l/activation	bifemlh_l/activation	bifemsh_l/activation	sar_l/activation	add_long_l/activation	add_brev_l/activation	add_mag1_l/activation	add_mag2_l/activation	add_mag3_l/activation	tfl_l/activation	pect_l/activation	grac_l/activation	glut_max1_l/activation	glut_max2_l/activation	glut_max3_l/activation	iliacus_l/activation	psoas_l/activation	quad_fem_l/activation	gem_l/activation	peri_l/activation	rect_fem_l/activation	vas_med_l/activation	vas_int_l/activation	vas_lat_l/activation	med_gas_l/activation	lat_gas_l/activation	soleus_l/activation	tib_post_l/activation	flex_dig_l/activation	flex_hal_l/activation	tib_ant_l/activation	per_brev_l/activation	per_long_l/activation	per_tert_l/activation	ext_dig_l/activation	ext_hal_l/activation	ercspn_l/activation	intobl_l/activation	extobl_l/activation	glut_med1_r/activation	glut_med2_r/activation	glut_med3_r/activation	glut_min1_r/activation	glut_min2_r/activation	glut_min3_r/activation	semimem_r/activation	semiten_r/activation	bifemlh_r/activation	bifemsh_r/activation	sar_r/activation	add_long_r/activation	add_brev_r/activation	add_mag1_r/activation	add_mag2_r/activation	add_mag3_r/activation	tfl_r/activation	pect_r/activation	grac_r/activation	glut_max1_r/activation	glut_max2_r/activation	glut_max3_r/activation	iliacus_r/activation	psoas_r/activation	quad_fem_r/activation	gem_r/activation	peri_r/activation	rect_fem_r/activation	vas_med_r/activation	vas_int_r/activation	vas_lat_r/activation	med_gas_r/activation	lat_gas_r/activation	soleus_r/activation	tib_post_r/activation	flex_dig_r/activation	flex_hal_r/activation	tib_ant_r/activation	per_brev_r/activation	per_long_r/activation	per_tert_r/activation	ext_dig_r/activation	ext_hal_r/activation	ercspn_r/activation	intobl_r/activation	extobl_r/activation	
          1.17917511	         -2.91948816	         -2.42008863	          6.79285026	          1.47396888	          0.91673933	         -0.00241791	        -16.12916619	         -2.09866841	          7.01897172	         28.41475756	          3.82058317	         -3.60242523	        -13.99239025	        -12.30945845	         -9.14674529	          4.29598882	         12.86967337	         -3.11600685	          4.08583525	          0.12418539	         29.34035635	         -0.09354768	         -0.91206776	          0.65214821	         -2.23684422	          3.50241643	        -13.51021459	         16.68251723	         -7.84104434	        -13.47029927	          7.05252823	         39.63543402	         15.51714223	         86.51662706	         86.51662706	          0.23578433	          0.06778869	          0.05000010	          0.19456538	          0.13906802	          0.07283700	          0.05000066	          0.05000009	          0.05000005	          0.05000002	          0.07125023	          0.16940428	          0.21489887	          0.05982664	          0.05982662	          0.05982674	          0.31603045	          0.09096956	          0.05306602	          0.05000814	          0.05981410	          0.05982640	          0.29005222	          0.53466339	          0.05982641	          0.05000110	          0.05000004	          0.30292465	          0.05983245	          0.05982884	          0.14672517	          0.17950764	          0.25490000	          0.22414562	          0.19166835	          0.17483766	          0.23392896	          0.07265613	          0.05000014	          0.16959093	          0.05000003	          0.10605011	          0.05000021	          0.05172583	          0.07158409	          0.06835560	          0.28011503	          0.24630830	          0.05000007	          0.05000004	          0.05000005	          0.29248512	          0.18264428	          0.11488136	          0.10539296	          0.05000002	          0.05982643	          0.08565262	          0.23660814	          0.30588380	          0.17548928	          0.12975925	          0.05000014	          0.07157560	          0.12323001	          0.05000018	          0.15339459	          0.14169202	          0.05982629	          0.05904480	          0.49630772	          0.22285742	          0.22716364	          0.05982646	          0.13709607	          0.13979846	          0.11793987	          0.05973461	          0.05982616	          0.05951699	          0.05000000	          0.05000003	          0.05000005	          0.54562569	          0.35788484	          0.17272805	          0.19525277	          0.55930007	          0.05000013	          0.05000000	          0.12557956	          0.07477035	
          1.19096686	         -2.91088774	         -2.52595339	          7.02668963	          1.49265466	          0.91553803	         -0.00226698	        -15.79005393	         -2.43446193	          6.79548706	         27.54876543	          4.10461057	         -3.32605315	        -16.16309151	        -12.79395676	        -10.18306287	          3.72883558	         13.83662153	         -3.60253397	          2.54596451	          0.18196734	         31.29273553	         -0.11741179	         -0.64358310	          0.88010714	         -2.30168284	          3.00350579	        -13.53953755	         16.90367820	         -8.93805552	        -13.48036447	          6.92278689	         40.93261608	         15.29836844	         86.51662706	         86.51662706	          0.19705692	          0.05665445	          0.05000000	          0.19053551	          0.11622621	          0.06087358	          0.05000045	          0.05000004	          0.05000003	          0.05000005	          0.07158215	          0.20400812	          0.17960190	          0.05000018	          0.05000027	          0.05000032	          0.29871823	          0.07610390	          0.05000005	          0.05000013	          0.05000007	          0.05000005	          0.24241141	          0.49476053	          0.05000000	          0.05000002	          0.05000001	          0.32506131	          0.05000504	          0.05000203	          0.12262568	          0.15002362	          0.21303283	          0.18732984	          0.16018694	          0.14612070	          0.19550628	          0.15412638	          0.15652194	          0.14173587	          0.13292647	          0.18814333	          0.12189561	          0.06978988	          0.05982645	          0.05712824	          0.37240459	          0.39510734	          0.35758463	          0.21838000	          0.25858628	          0.24444550	          0.15264508	          0.10922160	          0.08808228	          0.07158446	          0.05000009	          0.07158424	          0.19774541	          0.25564265	          0.24905307	          0.18372966	          0.05000003	          0.05981942	          0.13719066	          0.25013992	          0.22373521	          0.20281717	          0.05000000	          0.05000000	          0.41478950	          0.18625324	          0.18985229	          0.05000001	          0.11457821	          0.11683732	          0.09856842	          0.05000001	          0.05000002	          0.05000000	          0.05000000	          0.05000002	          0.05000002	          0.61579727	          0.29910251	          0.15893582	          0.54944280	          0.53941483	          0.30564045	          0.07354737	          0.10495320	          0.06248936	
          1.20275861	         -2.90190883	         -2.62649651	          7.22225763	          1.51115986	          0.91436890	         -0.00207693	        -15.31453711	         -2.74815124	          6.56080178	         26.73384851	          4.39041033	         -3.06037141	        -18.48844895	        -13.37389294	        -11.29108924	          3.32154139	         14.70142692	         -4.12088146	          0.95835700	          0.16920334	         32.74832749	         -0.12124407	         -0.40307968	          1.10986290	         -2.35736430	          2.51865991	        -13.57321379	         17.09960470	         -9.95049510	        -13.49089520	          6.88873618	         42.14236638	         15.05011335	         86.51662706	         86.51662706	          0.16469045	          0.05000008	          0.05000017	          0.15924019	          0.09713615	          0.05087527	          0.05000037	          0.05000004	          0.05000006	          0.05000002	          0.05982509	          0.23587072	          0.16013485	          0.22407658	          0.05000104	          0.05000058	          0.29947376	          0.06360435	          0.05000039	          0.05000059	          0.05000037	          0.05000029	          0.20259549	          0.44472077	          0.05005095	          0.05008961	          0.05982678	          0.29158703	          0.10248563	          0.10248563	          0.10248564	          0.12538233	          0.17804232	          0.15656103	          0.13387635	          0.12212050	          0.16339452	          0.27963281	          0.13081333	          0.11845585	          0.51454815	          0.26900560	          0.21661389	          0.10021994	          0.05000000	          0.05000000	          0.48836676	          0.53431910	          0.53141935	          0.25288947	          0.34795921	          0.48127461	          0.12757326	          0.12293528	          0.09758471	          0.05982677	          0.05000005	          0.05982658	          0.16526587	          0.21365366	          0.24731069	          0.20928050	          0.05000003	          0.05000054	          0.11465765	          0.33485904	          0.27316980	          0.23829659	          0.05000001	          0.05000001	          0.34666059	          0.15566128	          0.25135594	          0.05000000	          0.20119324	          0.20481659	          0.17338502	          0.05000000	          0.05000000	          0.05000000	          0.10668442	          0.05000045	          0.05000012	          0.72215639	          0.24997512	          0.13283071	          0.45919723	          0.57232750	          0.32710481	          0.08514601	          0.08771471	          0.05222553	
          1.21455036	         -2.89425841	         -2.72491626	          7.37999025	          1.52926323	          0.91340338	         -0.00186191	        -14.74048943	         -3.04082291	          6.33879341	         26.02955704	          4.68575122	         -2.79085501	        -20.87924611	        -14.09059641	        -12.40532373	          2.89819327	         15.44020958	         -4.66690306	         -0.27874896	          0.10747169	         32.87117257	         -0.13819093	         -0.20192519	          1.34614033	         -2.40374342	          2.09809726	        -13.59558281	         17.29653484	        -10.83212863	        -13.50063694	          6.94057979	         43.19423768	         14.74412719	         86.51662706	         86.51662706	          0.13764016	          0.05000413	          0.05171219	          0.13308510	          0.08118164	          0.05000039	          0.05000035	          0.05000001	          0.05000002	          0.05000000	          0.05000008	          0.24704469	          0.17306640	          0.18727228	          0.10244779	          0.07481736	          0.32867712	          0.05315748	          0.05000007	          0.05007800	          0.05982711	          0.09696071	          0.16931932	          0.41613360	          0.07283933	          0.05000149	          0.05000033	          0.24369405	          0.08565244	          0.08565244	          0.08565244	          0.10478837	          0.14879900	          0.13084598	          0.14669557	          0.12566199	          0.15296006	          0.23370330	          0.10932733	          0.09899956	          0.43003394	          0.22482160	          0.18103520	          0.12860481	          0.05000000	          0.05000000	          0.53842580	          0.59323021	          0.59291601	          0.30710948	          0.36826417	          0.40223889	          0.10661944	          0.10274331	          0.08155651	          0.05000028	          0.05000003	          0.05000012	          0.13812106	          0.17856162	          0.24089977	          0.21439010	          0.05000005	          0.05000020	          0.09582527	          0.37721720	          0.30084904	          0.24892641	          0.05000000	          0.05000000	          0.28972181	          0.13009403	          0.21007094	          0.05000001	          0.31745280	          0.31542422	          0.27022166	          0.05000000	          0.05000001	          0.05000000	          0.13615101	          0.05982692	          0.05000179	          0.75042185	          0.20891687	          0.11101335	          0.38377440	          0.54467661	          0.34915786	          0.09058591	          0.07330762	          0.05000000	
